<svg xmlns="http://www.w3.org/2000/svg" fill="none" viewBox="0 0 207 79" height="79" width="207">
<g clip-path="url(#clip0_2357_1433)">
<path fill="#FF9900" d="M118.883 58.133C110.975 63.9621 99.5122 67.0722 89.6429 67.0722C75.8047 67.0722 63.3467 61.9539 53.9217 53.4413C53.1813 52.7719 53.8447 51.8596 54.7333 52.3809C64.9047 58.2989 77.4811 61.8591 90.4723 61.8591C99.2337 61.8591 108.872 60.0464 117.734 56.2847C119.073 55.716 120.193 57.1615 118.883 58.133Z"></path>
<path fill="#FF9900" d="M122.172 54.3641C121.165 53.0726 115.49 53.7539 112.942 54.056C112.166 54.1508 112.048 53.4755 112.747 52.9897C117.267 49.8086 124.683 50.7268 125.548 51.7931C126.413 52.8653 125.323 60.2998 121.076 63.8482C120.424 64.3932 119.802 64.103 120.092 63.3802C121.046 60.9988 123.185 55.6614 122.172 54.3641Z"></path>
<path fill="#221F1F" d="M113.12 30.5344V27.4421C113.12 26.9741 113.475 26.6602 113.902 26.6602H127.746C128.19 26.6602 128.546 26.98 128.546 27.4421V30.0901C128.54 30.5344 128.167 31.1149 127.503 32.0331L120.329 42.2756C122.995 42.2104 125.809 42.6073 128.226 43.9698C128.771 44.2779 128.919 44.7281 128.96 45.1724V48.472C128.96 48.9222 128.463 49.4494 127.942 49.1769C123.682 46.9436 118.025 46.7007 113.315 49.2006C112.836 49.4613 112.332 48.94 112.332 48.4898V45.356C112.332 44.8525 112.338 43.9935 112.841 43.2293L121.153 31.3104H113.92C113.475 31.3104 113.12 30.9965 113.12 30.5344Z"></path>
<path fill="#221F1F" d="M62.6176 49.8309H58.4057C58.0028 49.8013 57.6829 49.4992 57.6533 49.1141V27.4978C57.6533 27.0654 58.0147 26.7218 58.4649 26.7218H62.3924C62.8012 26.7395 63.127 27.0535 63.1566 27.4445V30.2702H63.2336C64.2585 27.5393 66.1837 26.2656 68.7784 26.2656C71.4146 26.2656 73.0614 27.5393 74.2462 30.2702C75.2651 27.5393 77.5813 26.2656 80.0635 26.2656C81.8288 26.2656 83.76 26.9943 84.9388 28.6293C86.2717 30.4479 85.9992 33.09 85.9992 35.4062L85.9933 49.049C85.9933 49.4814 85.6319 49.8309 85.1817 49.8309H80.9758C80.5552 49.8013 80.2175 49.4637 80.2175 49.049V37.5921C80.2175 36.6799 80.3004 34.4051 80.099 33.5402C79.785 32.0888 78.8431 31.6801 77.6228 31.6801C76.6039 31.6801 75.5376 32.3613 75.1052 33.4513C74.6727 34.5413 74.7142 36.3659 74.7142 37.5921V49.049C74.7142 49.4814 74.3528 49.8309 73.9026 49.8309H69.6966C69.2701 49.8013 68.9384 49.4637 68.9384 49.049L68.9324 37.5921C68.9324 35.1811 69.3293 31.6327 66.3378 31.6327C63.3106 31.6327 63.4291 35.0922 63.4291 37.5921V49.049C63.4291 49.4814 63.0678 49.8309 62.6176 49.8309Z"></path>
<path fill="#221F1F" d="M140.464 26.2656C146.713 26.2656 150.096 31.6327 150.096 38.457C150.096 45.0503 146.358 50.2811 140.464 50.2811C134.326 50.2811 130.985 44.9141 130.985 38.226C130.985 31.4964 134.368 26.2656 140.464 26.2656ZM140.499 30.6789C137.395 30.6789 137.2 34.9086 137.2 37.5447C137.2 40.1868 137.158 45.8264 140.464 45.8264C143.728 45.8264 143.882 41.2768 143.882 38.5044C143.882 36.6799 143.805 34.4999 143.254 32.7701C142.78 31.2654 141.838 30.6789 140.499 30.6789Z"></path>
<path fill="#221F1F" d="M158.2 49.8309H154.006C153.586 49.8013 153.248 49.4637 153.248 49.049L153.242 27.4267C153.278 27.0298 153.627 26.7218 154.054 26.7218H157.958C158.325 26.7395 158.627 26.9883 158.71 27.326V30.6315H158.787C159.966 27.6755 161.619 26.2656 164.527 26.2656C166.417 26.2656 168.259 26.9469 169.444 28.8129C170.546 30.5427 170.546 33.4513 170.546 35.5425V49.1497C170.499 49.5288 170.149 49.8309 169.734 49.8309H165.511C165.126 49.8013 164.806 49.517 164.764 49.1497V37.4085C164.764 35.0449 165.037 31.5853 162.128 31.5853C161.103 31.5853 160.161 32.2725 159.693 33.3151C159.101 34.6361 159.024 35.9512 159.024 37.4085V49.049C159.018 49.4814 158.651 49.8309 158.2 49.8309Z"></path>
<path fill="#221F1F" d="M102.083 39.5098V38.5975C99.0385 38.5975 95.8219 39.2491 95.8219 42.839C95.8219 44.6576 96.7638 45.8898 98.381 45.8898C99.5658 45.8898 100.626 45.1612 101.296 43.9764C102.125 42.5191 102.083 41.1507 102.083 39.5098ZM106.331 49.7759C106.052 50.0247 105.65 50.0425 105.336 49.8766C103.938 48.7155 103.689 48.1765 102.919 47.0687C100.608 49.4264 98.9734 50.1313 95.9759 50.1313C92.4334 50.1313 89.6729 47.9454 89.6729 43.5677C89.6729 40.1496 91.527 37.8215 94.1632 36.6841C96.4498 35.677 99.6428 35.4993 102.083 35.2209V34.6759C102.083 33.6747 102.16 32.4899 101.574 31.6251C101.059 30.849 100.075 30.5291 99.2103 30.5291C97.605 30.5291 96.1714 31.3525 95.8219 33.0586C95.7508 33.4378 95.4724 33.811 95.0932 33.8287L91.0057 33.3904C90.6621 33.3134 90.283 33.0349 90.3778 32.5077C91.3197 27.5553 95.7922 26.0625 99.7968 26.0625C101.846 26.0625 104.524 26.6075 106.141 28.1596C108.191 30.073 107.995 32.6262 107.995 35.4045V41.9682C107.995 43.9409 108.813 44.8057 109.583 45.8721C109.856 46.2512 109.915 46.7073 109.571 46.9917C108.712 47.7085 107.184 49.0413 106.343 49.7878L106.331 49.7759Z"></path>
<path fill="#221F1F" d="M46.8666 39.5098V38.5975C43.8218 38.5975 40.6051 39.2491 40.6051 42.839C40.6051 44.6576 41.547 45.8898 43.1642 45.8898C44.349 45.8898 45.4094 45.1612 46.0788 43.9764C46.9081 42.5191 46.8666 41.1507 46.8666 39.5098ZM51.1141 49.7759C50.8357 50.0247 50.4328 50.0425 50.1189 49.8766C48.7208 48.7155 48.472 48.1765 47.7019 47.0687C45.3916 49.4264 43.7566 50.1313 40.7591 50.1313C37.2166 50.1313 34.4561 47.9454 34.4561 43.5677C34.4561 40.1496 36.3102 37.8215 38.9464 36.6841C41.233 35.677 44.426 35.4993 46.8666 35.2209V34.6759C46.8666 33.6747 46.9437 32.4899 46.3572 31.6251C45.8418 30.849 44.8584 30.5291 43.9935 30.5291C42.3882 30.5291 40.9546 31.3525 40.6051 33.0586C40.534 33.4378 40.2556 33.811 39.8764 33.8287L35.7889 33.3904C35.4453 33.3134 35.0662 33.0349 35.161 32.5077C36.1029 27.5553 40.5754 26.0625 44.58 26.0625C46.6297 26.0625 49.3073 26.6075 50.9245 28.1596C52.9742 30.073 52.7787 32.6262 52.7787 35.4045V41.9682C52.7787 43.9409 53.5962 44.8057 54.3663 45.8721C54.6388 46.2512 54.698 46.7073 54.3545 46.9917C53.4955 47.7085 51.9671 49.0413 51.1259 49.7878L51.1141 49.7759Z"></path>
</g>
<defs>
<clipPath id="clip0_2357_1433">
<rect transform="translate(34.374 26)" fill="white" height="41.1244" width="136.253"></rect>
</clipPath>
</defs>
</svg>
